# xmcd
#
# Track frame offsets:
#	150
#	16709
#	39532
#	58581
#	72190
#	92059
#	111081
#	128276
#	144452
#	162866
#	176196
#
# Disc length: 2644 seconds
#
# Revision: 0
# Processed by: cddbd v1.5.2PL0 Copyright (c) Steve Scherf et al.
# Submitted via: EZCDAudioConverter 8.0.2.1
#
DISCID=890a520b
DTITLE=Various Artist - Internet Love. Như Thoáng Mây Bay
DYEAR=2000
DGENRE=
TTITLE0=Tam Ca 3A - Tình yêu qua mạng
TTITLE1=Bằng Kiều - Đêm cô đơn
TTITLE2=New Side band - Dạ vũ tình nồng
TTITLE3=Trần Thu hà - Như là anh yêu em
TTITLE4=Nguyên Lộc - Chàng trai yêu đời
TTITLE5=Tam Ca 3A - Say tình
TTITLE6=Bằng Kiều - Tình muộn
TTITLE7=Thế Hệ Mới - Bâng khuâng nắng hạ
TTITLE8=New Side band - Đến với Rio
TTITLE9=Ngọc Anh - Không cân... Dù em vẫn còn yêu
TTITLE10=Soundtrack - Đêm cô đơn
EXTD=
EXTT0=
EXTT1=
EXTT2=
EXTT3=
EXTT4=
EXTT5=
EXTT6=
EXTT7=
EXTT8=
EXTT9=
EXTT10=
PLAYORDER=
